<svg width="64" height="64" viewBox="0 0 64 64" fill="none" xmlns="http://www.w3.org/2000/svg">
<path d="M32 40.7502C22.335 40.7502 14.5 32.9151 14.5 23.2502V7.04645C14.5 5.83941 14.5 5.23587 14.6759 4.7526C14.9708 3.94244 15.6089 3.30427 16.4191 3.0094C16.9023 2.8335 17.5059 2.8335 18.7129 2.8335H45.2871C46.4941 2.8335 47.0975 2.8335 47.5808 3.0094C48.3911 3.30427 49.0292 3.94244 49.3241 4.7526C49.5 5.23587 49.5 5.83941 49.5 7.04645V23.2502C49.5 32.9151 41.6649 40.7502 32 40.7502ZM32 40.7502V49.5002M49.5 8.66683H56.7916C58.1505 8.66683 58.8301 8.66683 59.3662 8.88885C60.0808 9.18486 60.6486 9.75268 60.9447 10.4673C61.1666 11.0033 61.1666 11.6828 61.1666 13.0418V14.5002C61.1666 17.2126 61.1666 18.5688 60.8686 19.6815C60.0595 22.701 57.7008 25.0596 54.6814 25.8687C53.5687 26.1668 52.2125 26.1668 49.5 26.1668M14.5 8.66683H7.20831C5.84932 8.66683 5.16983 8.66683 4.63383 8.88885C3.91916 9.18486 3.35134 9.75268 3.05533 10.4673C2.83331 11.0033 2.83331 11.6828 2.83331 13.0418V14.5002C2.83331 17.2126 2.83331 18.5688 3.13145 19.6815C3.94054 22.701 6.2991 25.0596 9.31864 25.8687C10.4313 26.1668 11.7876 26.1668 14.5 26.1668M18.7129 61.1668H45.2871C46.0029 61.1668 46.5833 60.5864 46.5833 59.8707C46.5833 54.1432 41.9403 49.5002 36.2128 49.5002H27.7871C22.0596 49.5002 17.4166 54.1432 17.4166 59.8707C17.4166 60.5864 17.997 61.1668 18.7129 61.1668Z" stroke="#F58634" stroke-width="4" stroke-linecap="round" stroke-linejoin="round"/>
</svg>
