<svg width="70" height="70" viewBox="0 0 70 70" fill="none" xmlns="http://www.w3.org/2000/svg">
<path d="M40.8333 32.0835H23.3333M29.1666 43.7502H23.3333M46.6666 20.4168H23.3333M58.3333 19.8335V50.1668C58.3333 55.0674 58.3333 57.5174 57.3795 59.3893C56.5407 61.0358 55.2023 62.3742 53.5558 63.2131C51.6839 64.1668 49.2339 64.1668 44.3333 64.1668H25.6666C20.7662 64.1668 18.3159 64.1668 16.4442 63.2131C14.7978 62.3742 13.4592 61.0358 12.6203 59.3893C11.6666 57.5174 11.6666 55.0674 11.6666 50.1668V19.8335C11.6666 14.933 11.6666 12.4828 12.6203 10.6111C13.4592 8.96465 14.7978 7.62608 16.4442 6.78719C18.3159 5.8335 20.7662 5.8335 25.6666 5.8335H44.3333C49.2339 5.8335 51.6839 5.8335 53.5558 6.78719C55.2023 7.62608 56.5407 8.96465 57.3795 10.6111C58.3333 12.4828 58.3333 14.933 58.3333 19.8335Z" stroke="#F58634" stroke-width="4" stroke-linecap="round" stroke-linejoin="round"/>
</svg>
