<svg width="70" height="70" viewBox="0 0 70 70" fill="none" xmlns="http://www.w3.org/2000/svg">
<path d="M58.3333 36.4585V19.8335C58.3333 14.933 58.3333 12.4828 57.3795 10.6111C56.5407 8.96465 55.2023 7.62608 53.5558 6.78719C51.6839 5.8335 49.2339 5.8335 44.3333 5.8335H25.6666C20.7662 5.8335 18.3159 5.8335 16.4442 6.78719C14.7978 7.62608 13.4592 8.96465 12.6203 10.6111C11.6666 12.4828 11.6666 14.933 11.6666 19.8335V50.1668C11.6666 55.0674 11.6666 57.5174 12.6203 59.3893C13.4592 61.0358 14.7978 62.3742 16.4442 63.2131C18.3159 64.1668 20.7662 64.1668 25.6666 64.1668H35M40.8333 32.0835H23.3333M29.1666 43.7502H23.3333M46.6666 20.4168H23.3333M42.2916 55.4168L48.125 61.2502L61.25 48.1252" stroke="#F58634" stroke-width="4" stroke-linecap="round" stroke-linejoin="round"/>
</svg>
