<svg width="70" height="70" viewBox="0 0 70 70" fill="none" xmlns="http://www.w3.org/2000/svg">
<path d="M58.3334 29.1668V19.8335C58.3334 14.933 58.3334 12.4828 57.3797 10.6111C56.5408 8.96465 55.2024 7.62608 53.5559 6.78719C51.684 5.8335 49.234 5.8335 44.3334 5.8335H25.6667C20.7663 5.8335 18.316 5.8335 16.4443 6.78719C14.7979 7.62608 13.4593 8.96465 12.6204 10.6111C11.6667 12.4828 11.6667 14.933 11.6667 19.8335V50.1668C11.6667 55.0674 11.6667 57.5174 12.6204 59.3893C13.4593 61.0358 14.7979 62.3742 16.4443 63.2131C18.316 64.1668 20.7663 64.1668 25.6667 64.1668H35.0001M36.4584 32.0835H23.3334M26.2501 43.7502H23.3334M46.6667 20.4168H23.3334M49.5755 43.2561C47.2428 40.6048 43.3531 39.8917 40.4306 42.3192C37.5081 44.7471 37.0966 48.8062 39.3917 51.6774C41.6868 54.5488 49.5755 61.2502 49.5755 61.2502C49.5755 61.2502 57.464 54.5488 59.7591 51.6774C62.0542 48.8062 61.6931 44.7217 58.7202 42.3192C55.7475 39.9171 51.908 40.6048 49.5755 43.2561Z" stroke="#F58634" stroke-width="4" stroke-linecap="round" stroke-linejoin="round"/>
</svg>
