<svg width="55" height="55" viewBox="0 0 55 55" fill="none" xmlns="http://www.w3.org/2000/svg">
<g id="AmericanExpress">
<g id="Group 5">
<path id="EXPRESS" fill-rule="evenodd" clip-rule="evenodd" d="M55 28.4962H52.139C51.2756 28.4962 50.6485 28.7024 50.2043 29.0229V28.4962H45.9726C45.2959 28.4962 44.5015 28.6635 44.1258 29.0229V28.4962H36.5691V29.0229C35.9677 28.5903 34.9529 28.4962 34.4845 28.4962H29.5V29.0229C29.0243 28.5635 27.9662 28.4962 27.3213 28.4962H21.7428L20.4662 29.8736L19.2706 28.4962H10.9375V37.4955H19.1138L20.4292 36.0963L21.6683 37.4955L26.7082 37.4999V35.383H27.2036C27.8724 35.3933 28.661 35.3664 29.3569 35.0665V37.4953H33.5139V35.1498H33.7144C33.9703 35.1498 33.9955 35.1603 33.9955 35.4153V37.4951H46.6237C47.4255 37.4951 48.2635 37.2905 48.7276 36.9192V37.4951H52.7332C53.5668 37.4951 54.3808 37.3786 55.0002 37.0802C55.0002 -12.1575 55 49.1118 55 28.4962Z" fill="#006FCF"/>
<path id="AMERICAN" fill-rule="evenodd" clip-rule="evenodd" d="M2.64148 26.3954L3.23704 24.9632H4.57036L5.16436 26.3954H10.3613V25.3004L10.8252 26.4H13.523L13.9869 25.2841V26.3954H26.9023L26.8962 24.0444H27.1461C27.3211 24.0505 27.3722 24.0666 27.3722 24.3546V26.3954H34.0521V25.8481C34.5909 26.1359 35.4289 26.3954 36.5317 26.3954H39.3419L39.9433 24.9632H41.2766L41.8648 26.3954H47.2802V25.035L48.1003 26.3954H52.4399V17.4023H48.1451V18.4644L47.5437 17.4023H43.1368V18.4644L42.5846 17.4023H36.6319C35.6355 17.4023 34.7596 17.541 34.0521 17.9275V17.4023H29.9443V17.9275C29.494 17.5291 28.8805 17.4023 28.1984 17.4023H13.1908L12.1839 19.7251L11.1498 17.4023H6.42277V18.4644L5.90349 17.4023H1.87211L0 21.6781V26.3954H2.64148Z" fill="#006FCF"/>
<g id="Subtract">
<path fill-rule="evenodd" clip-rule="evenodd" d="M27.2717 34.0558C28.623 34.0558 29.9637 33.6859 29.9637 31.8943C29.9637 30.1081 28.5853 29.7695 27.3585 29.7695H22.4189L20.4525 31.8836L18.5506 29.7695H12.333V36.2191H18.4563L20.4346 34.084L22.3381 36.2191H25.3428V34.0558H27.2717ZM25.3428 32.746H27.3405C27.9345 32.746 28.304 32.4521 28.304 31.8943C28.304 31.3303 27.9166 31.1036 27.3585 31.1036H25.3428V32.746ZM17.6737 34.875H13.8729V33.5918H17.2668V32.2759H13.8729V31.1034H17.7486L19.4395 32.9829L17.6737 34.875ZM23.8031 35.6326L21.4296 33.0054L23.8031 30.4618V35.6326Z" fill="white"/>
<path fill-rule="evenodd" clip-rule="evenodd" d="M36.5749 33.7633C36.443 33.5754 36.1617 33.3485 35.8176 33.2219C36.2246 33.0608 36.9132 32.5355 36.9134 31.5061C36.9134 30.7704 36.6065 30.3678 36.1186 30.0739C35.6112 29.804 35.0412 29.7695 34.2586 29.7695H30.6896V36.2191H32.2429V33.8635H33.895C34.4589 33.8635 34.8032 33.9187 35.0291 34.1497C35.2878 34.4197 35.2833 34.9122 35.2798 35.2908C35.2794 35.3328 35.279 35.3734 35.279 35.4122V36.2191H36.831V34.9405C36.8248 34.372 36.7932 34.0782 36.5749 33.7633ZM34.884 32.4193C34.6772 32.5416 34.4215 32.5521 34.1207 32.5521H32.2427V31.1036H34.1463C34.4215 31.1036 34.6969 31.1094 34.884 31.22C35.0844 31.3245 35.2041 31.5242 35.2041 31.8002C35.2041 32.0762 35.0844 32.2985 34.884 32.4193Z" fill="white"/>
<path d="M48.8333 32.8175C49.1343 33.1281 49.2956 33.5202 49.2956 34.184C49.2956 35.5714 48.4262 36.2191 46.8671 36.2191H43.8562V34.8361H46.8551C47.1482 34.8361 47.3562 34.7974 47.4865 34.6764C47.5928 34.5766 47.6691 34.4318 47.6691 34.2557C47.6691 34.0679 47.5866 33.9187 47.4805 33.8292C47.3622 33.7308 47.1992 33.6861 46.93 33.6861C46.8353 33.6829 46.7391 33.6803 46.6419 33.6776C45.2549 33.64 43.6738 33.5972 43.6738 31.6899C43.6738 30.7544 44.2633 29.7697 45.884 29.7697H48.9831V31.1424H46.1473C45.8662 31.1424 45.6834 31.1529 45.528 31.2589C45.3587 31.3633 45.2958 31.5184 45.2958 31.7229C45.2958 31.9663 45.4396 32.1318 45.6341 32.2033C45.7972 32.2599 45.9723 32.2765 46.2357 32.2765L47.0679 32.2988C47.9071 32.3192 48.4831 32.4639 48.8333 32.8175Z" fill="white"/>
<path d="M54.9997 31.142H52.1823C51.901 31.142 51.7141 31.1525 51.5567 31.2585C51.3936 31.3629 51.3308 31.5179 51.3308 31.7225C51.3308 31.9658 51.4685 32.1314 51.6689 32.2029C51.8319 32.2595 52.0071 32.2761 52.2646 32.2761L53.1024 32.2984C53.9479 32.3192 54.5122 32.4641 54.8563 32.8175C54.9092 32.859 54.9443 32.9049 54.9798 32.9514L54.9895 32.9639L54.9956 32.9719L54.9997 32.9772V35.3941C54.6242 35.9416 53.8925 36.2191 52.9019 36.2191H49.9165V34.8361H52.8898C53.1848 34.8361 53.3912 34.7974 53.5154 34.6764C53.6231 34.5767 53.6982 34.4318 53.6982 34.2558C53.6982 34.0679 53.6231 33.9187 53.5094 33.8292C53.3972 33.7308 53.2339 33.6861 52.9647 33.6861C52.8698 33.6829 52.7733 33.6803 52.6759 33.6777C51.284 33.6401 49.7023 33.5973 49.7023 31.6899C49.7023 30.7544 50.2981 29.7697 51.9203 29.7697H54.9995L54.9997 31.142Z" fill="white"/>
<path d="M37.7705 29.7695H42.93V31.1033H39.31V32.2759H42.8416V33.5918H39.31V34.875L42.93 34.8808V36.2191H37.7705V29.7695Z" fill="white"/>
</g>
<path id="AMERICAN_2" fill-rule="evenodd" clip-rule="evenodd" d="M4.9582 22.337L3.90012 19.7665L2.84809 22.337H4.9582ZM28.2675 21.3135C28.055 21.4421 27.8038 21.4464 27.5028 21.4464H25.6248V20.0142H27.5283C27.7977 20.0142 28.0788 20.0262 28.2614 20.1305C28.4619 20.2244 28.586 20.4243 28.586 20.7005C28.586 20.9823 28.468 21.2091 28.2675 21.3135ZM41.6647 22.337L40.5949 19.7665L39.531 22.337H41.6647ZM16.6914 25.1194H15.1067L15.1008 20.0694L12.8592 25.1194H11.5019L9.25447 20.0649V25.1194H6.11029L5.51629 23.6812H2.29759L1.69755 25.1194H0.0185547L2.78683 18.6714H5.08362L7.71281 24.7763V18.6714H10.2359L12.259 23.0456L14.1174 18.6714H16.6912V25.1194H16.6914ZM23.0077 25.1194H17.8435V18.6714H23.0077V20.0141H19.3895V21.1764H22.9209V22.4981H19.3895V23.7858H23.0077V25.1194ZM30.289 20.408C30.289 21.436 29.6008 21.9671 29.1997 22.1266C29.5379 22.255 29.8269 22.4818 29.9644 22.6696C30.1827 22.9903 30.2203 23.2768 30.2203 23.8527V25.1194H28.6611L28.6552 24.3062C28.6552 23.9182 28.6925 23.3603 28.4112 23.05C28.1853 22.8233 27.841 22.7741 27.2845 22.7741H25.625V25.1194H24.0792V18.6714H27.6348C28.4249 18.6714 29.007 18.6922 29.5067 18.9802C29.9958 19.2683 30.289 19.6887 30.289 20.408ZM32.7629 25.1194H31.1855V18.6714H32.7629V25.1194ZM51.0623 25.1194H48.8716L45.9414 20.2798V25.1194H42.7932L42.1916 23.6812H38.9803L38.3966 25.1194H36.5877C35.8363 25.1194 34.8849 24.9537 34.3461 24.4062C33.8028 23.8587 33.5202 23.1171 33.5202 21.9446C33.5202 20.9883 33.6891 20.1141 34.3535 19.4233C34.8533 18.9087 35.6359 18.6714 36.7012 18.6714H38.1978V20.053H36.7326C36.1685 20.053 35.8499 20.1366 35.5431 20.435C35.2795 20.7065 35.0987 21.2197 35.0987 21.8956C35.0987 22.5864 35.2364 23.0845 35.5238 23.4098C35.7618 23.665 36.1942 23.7424 36.6012 23.7424H37.2954L39.4742 18.6716H41.7905L44.4078 24.7705V18.6716H46.7615L49.4789 23.1623V18.6716H51.0623V25.1194Z" fill="white"/>
</g>
</g>
</svg>
