<svg width="55" height="55" viewBox="0 0 55 55" fill="none" xmlns="http://www.w3.org/2000/svg">
<g id="Apple Pay">
<path id="Vector" d="M10.0495 19.1322C9.40493 19.895 8.37356 20.4966 7.3422 20.4106C7.21328 19.3793 7.71822 18.2834 8.3091 17.6066C8.95371 16.8223 10.0818 16.2637 10.995 16.2207C11.1024 17.295 10.6834 18.3479 10.0495 19.1322ZM10.9842 20.6148C9.49088 20.5288 8.21241 21.4635 7.50335 21.4635C6.78354 21.4635 5.69845 20.6577 4.51668 20.6792C2.98037 20.7007 1.55149 21.5709 0.767225 22.9568C-0.844288 25.7286 0.348231 29.8326 1.90603 32.0887C2.66881 33.206 3.582 34.4308 4.78526 34.3878C5.92407 34.3448 6.37529 33.6465 7.75045 33.6465C9.13635 33.6465 9.53385 34.3878 10.7371 34.3663C11.9834 34.3448 12.7676 33.249 13.5304 32.1317C14.4006 30.864 14.7552 29.6285 14.7766 29.564C14.7552 29.5425 12.3701 28.6294 12.3486 25.879C12.3271 23.5799 14.2287 22.4841 14.3147 22.4197C13.2403 20.8296 11.5644 20.6577 10.9842 20.6148ZM19.6112 17.4992V34.2482H22.2111V28.5219H25.8101C29.0976 28.5219 31.4075 26.2658 31.4075 22.9998C31.4075 19.7338 29.1406 17.4992 25.8961 17.4992H19.6112ZM22.2111 19.6908H25.2085C27.4646 19.6908 28.7538 20.8941 28.7538 23.0105C28.7538 25.127 27.4646 26.341 25.1978 26.341H22.2111V19.6908ZM36.156 34.3771C37.789 34.3771 39.3039 33.5498 39.9914 32.2391H40.0452V34.2482H42.4517V25.9113C42.4517 23.494 40.5179 21.9362 37.5419 21.9362C34.7809 21.9362 32.7396 23.5155 32.6644 25.6857H35.0065C35.1999 24.6543 36.156 23.9775 37.4667 23.9775C39.0568 23.9775 39.9485 24.7187 39.9485 26.0832V27.0071L36.704 27.2005C33.6851 27.3831 32.0521 28.6186 32.0521 30.7673C32.0521 32.9375 33.7388 34.3771 36.156 34.3771ZM36.8544 32.3895C35.4685 32.3895 34.5875 31.7235 34.5875 30.7028C34.5875 29.65 35.4362 29.0376 37.0585 28.9409L39.9485 28.7583V29.7037C39.9485 31.2722 38.6163 32.3895 36.8544 32.3895ZM45.664 38.8034C48.1994 38.8034 49.3919 37.8365 50.434 34.9035L55 22.0974H52.3571L49.2952 31.992H49.2415L46.1797 22.0974H43.4616L47.8664 34.2911L47.63 35.0324C47.2325 36.2894 46.5879 36.7729 45.4384 36.7729C45.2342 36.7729 44.8367 36.7514 44.6756 36.7299V38.7389C44.826 38.7819 45.4706 38.8034 45.664 38.8034Z" fill="black"/>
</g>
</svg>
