<svg width="30" height="30" viewBox="0 0 30 30" fill="none" xmlns="http://www.w3.org/2000/svg">
<g id="8174609821599780997" clip-path="url(#clip0_1649_1758)">
<path id="Vector" d="M25.4061 25.3893C31.1542 19.6412 31.1542 10.3217 25.4061 4.57363C19.658 -1.17445 10.3385 -1.17446 4.59044 4.57362C-1.15764 10.3217 -1.15764 19.6412 4.59045 25.3893C10.3385 31.1374 19.658 31.1374 25.4061 25.3893Z" fill="#1877F2"/>
<path id="Vector_2" d="M14.6984 15.8166C14.6886 15.7461 14.6789 15.6757 14.6689 15.605C14.6974 15.1747 14.6345 14.7312 14.855 14.3291C14.9246 14.389 14.9941 14.4489 15.0635 14.5088C15.5242 14.8895 15.1376 15.3856 15.2414 15.8149C15.1822 15.8182 15.123 15.8201 15.0637 15.8207C14.9419 15.8193 14.8202 15.8179 14.6984 15.8166Z" fill="#A2B1CE"/>
<path id="Vector_3" d="M15.3266 14.7344C15.2301 14.9745 15.1336 15.2147 15.0372 15.4549C14.9078 15.2016 14.2075 14.9492 15.0361 14.6943C15.1329 14.7077 15.2298 14.721 15.3266 14.7344Z" fill="#E8ECF3"/>
<path id="Vector_4" d="M14.7178 14.3252C14.8395 14.3266 14.9613 14.328 15.0831 14.3294C15.1426 14.5164 15.2023 14.7033 15.2619 14.8903C15.0631 15.0217 15.2532 15.1395 15.2751 15.2631C15.2106 15.3278 15.1462 15.3926 15.0818 15.4573C14.927 15.533 14.8971 15.6722 14.8948 15.8253C14.523 15.3622 14.783 14.8245 14.7178 14.3252Z" fill="#A7B5D1"/>
<path id="Vector_5" fill-rule="evenodd" clip-rule="evenodd" d="M12.5591 15.1487V24.1638C12.5591 24.2935 12.6642 24.3986 12.7939 24.3986H16.1417C16.2714 24.3986 16.3765 24.2935 16.3765 24.1638V15.0019H18.8036C18.9256 15.0019 19.0272 14.9084 19.0376 14.7868L19.271 12.0263C19.2826 11.8893 19.1745 11.7717 19.037 11.7717H16.3765V9.81321C16.3765 9.35419 16.7486 8.98209 17.2076 8.98209H19.0782C19.2079 8.98209 19.313 8.87695 19.313 8.74725V5.98676C19.313 5.8571 19.2079 5.75195 19.0782 5.75195H15.9175C14.0627 5.75195 12.5591 7.25555 12.5591 9.11035V11.7717H10.8852C10.7555 11.7717 10.6504 11.8769 10.6504 12.0066V14.7671C10.6504 14.8967 10.7555 15.0019 10.8852 15.0019H12.5591V15.1487H12.5591Z" fill="white"/>
</g>
<defs>
<clipPath id="clip0_1649_1758">
<rect width="30" height="30" fill="white"/>
</clipPath>
</defs>
</svg>
