<svg width="30" height="30" viewBox="0 0 30 30" fill="none" xmlns="http://www.w3.org/2000/svg">
<g id="18265738341599780998 1" clip-path="url(#clip0_1649_1751)">
<path id="Vector" d="M14.9986 29.7717C23.1667 29.7717 29.7883 23.1501 29.7883 14.982C29.7883 6.81393 23.1667 0.192383 14.9986 0.192383C6.83053 0.192383 0.208984 6.81393 0.208984 14.982C0.208984 23.1501 6.83053 29.7717 14.9986 29.7717Z" fill="url(#paint0_linear_1649_1751)"/>
<g id="Group">
<path id="Vector_2" d="M20.2339 10.9795C20.8685 10.9795 21.3829 10.4651 21.3829 9.83059C21.3829 9.19604 20.8685 8.68164 20.2339 8.68164C19.5994 8.68164 19.085 9.19604 19.085 9.83059C19.085 10.4651 19.5994 10.9795 20.2339 10.9795Z" fill="white"/>
<path id="Vector_3" d="M15.1253 10.1553C12.4641 10.1553 10.2988 12.3204 10.2988 14.9817C10.2988 17.643 12.4641 19.8081 15.1253 19.8081C17.7866 19.8081 19.9517 17.643 19.9517 14.9817C19.9517 12.3204 17.7866 10.1553 15.1253 10.1553ZM15.1253 18.0734C13.4206 18.0734 12.0336 16.6865 12.0336 14.9817C12.0336 13.2769 13.4206 11.8901 15.1253 11.8901C16.8301 11.8901 18.2169 13.2769 18.2169 14.9817C18.2169 16.6865 16.8301 18.0734 15.1253 18.0734Z" fill="white"/>
<g id="Group_2">
<path id="Vector_4" d="M18.9572 24.7808H11.1328C7.88679 24.7808 5.24609 22.1401 5.24609 18.8941V11.0693C5.24609 7.82327 7.88678 5.18262 11.1328 5.18262H18.9572C22.2032 5.18262 24.8442 7.82327 24.8442 11.0693V18.8941C24.8442 22.1401 22.2032 24.7808 18.9572 24.7808ZM11.1328 7.02637C8.90336 7.02637 7.08985 8.83988 7.08985 11.0693V18.8941C7.08985 21.1235 8.90336 22.937 11.1328 22.937H18.9572C21.1866 22.937 23.0005 21.1235 23.0005 18.8941V11.0693C23.0005 8.83988 21.1866 7.02637 18.9572 7.02637H11.1328Z" fill="white"/>
</g>
</g>
</g>
<defs>
<linearGradient id="paint0_linear_1649_1751" x1="2.38707" y1="27.5936" x2="34.349" y2="-4.36831" gradientUnits="userSpaceOnUse">
<stop offset="0.0011" stop-color="#FBE18A"/>
<stop offset="0.112878" stop-color="#FCBB45"/>
<stop offset="0.3765" stop-color="#F75274"/>
<stop offset="0.5238" stop-color="#D53692"/>
<stop offset="0.7394" stop-color="#8F39CE"/>
<stop offset="1" stop-color="#5B4FE9"/>
</linearGradient>
<clipPath id="clip0_1649_1751">
<rect width="30" height="30" fill="white"/>
</clipPath>
</defs>
</svg>
