<svg width="38" height="38" viewBox="0 0 38 38" fill="none" xmlns="http://www.w3.org/2000/svg">
<g id="&#240;&#159;&#166;&#134; icon &#34;rounded linkedin&#34;" filter="url(#filter0_d_1649_1773)">
<path id="Vector" d="M26.509 0C27.5364 0 28.5042 0.197133 29.4122 0.591398C30.3202 0.985663 31.1147 1.5233 31.7957 2.2043C32.4767 2.8853 33.0143 3.67981 33.4086 4.58781C33.8029 5.49582 34 6.46356 34 7.49104V22.4731C34 23.5006 33.8029 24.4743 33.4086 25.3943C33.0143 26.3142 32.4767 27.1147 31.7957 27.7957C31.1147 28.4767 30.3202 29.0143 29.4122 29.4086C28.5042 29.8029 27.5364 30 26.509 30H11.491C10.4636 30 9.49582 29.8029 8.58781 29.4086C7.67981 29.0143 6.8853 28.4767 6.2043 27.7957C5.5233 27.1147 4.98566 26.3142 4.5914 25.3943C4.19713 24.4743 4 23.5006 4 22.4731V7.49104C4 6.46356 4.19713 5.49582 4.5914 4.58781C4.98566 3.67981 5.5233 2.8853 6.2043 2.2043C6.8853 1.5233 7.67981 0.985663 8.58781 0.591398C9.49582 0.197133 10.4636 0 11.491 0H26.509ZM14.3226 11.2545H10.5591V23.4409H14.3226V11.2545ZM12.4588 10.2867C12.9606 10.2867 13.3967 10.1075 13.767 9.7491C14.1374 9.39068 14.3226 8.94863 14.3226 8.42294C14.3226 7.89725 14.1374 7.4552 13.767 7.09677C13.3967 6.73835 12.9606 6.55914 12.4588 6.55914C11.9331 6.55914 11.4851 6.73835 11.1147 7.09677C10.7443 7.4552 10.5591 7.89725 10.5591 8.42294C10.5591 8.94863 10.7443 9.39068 11.1147 9.7491C11.4851 10.1075 11.9331 10.2867 12.4588 10.2867ZM27.4409 16.3799C27.4409 15.5197 27.2019 14.6774 26.724 13.853C26.2461 13.0287 25.6249 12.4014 24.8602 11.9713C24.1673 11.589 23.3608 11.3859 22.4409 11.362C21.5209 11.3381 20.6906 11.4934 19.9498 11.828V11.2545H16.1864V23.4409H19.9498V15.9857L21.491 15.233C21.6822 15.1374 21.945 15.0896 22.2796 15.0896C22.6141 15.0896 22.865 15.1493 23.0323 15.2688C23.1756 15.3405 23.319 15.4958 23.4624 15.7348C23.6057 15.9737 23.6774 16.1888 23.6774 16.3799V23.4409H27.4409V16.3799Z" fill="#0274B3"/>
</g>
<defs>
<filter id="filter0_d_1649_1773" x="0" y="0" width="38" height="38" filterUnits="userSpaceOnUse" color-interpolation-filters="sRGB">
<feFlood flood-opacity="0" result="BackgroundImageFix"/>
<feColorMatrix in="SourceAlpha" type="matrix" values="0 0 0 0 0 0 0 0 0 0 0 0 0 0 0 0 0 0 127 0" result="hardAlpha"/>
<feOffset dy="4"/>
<feGaussianBlur stdDeviation="2"/>
<feComposite in2="hardAlpha" operator="out"/>
<feColorMatrix type="matrix" values="0 0 0 0 0 0 0 0 0 0 0 0 0 0 0 0 0 0 0.25 0"/>
<feBlend mode="normal" in2="BackgroundImageFix" result="effect1_dropShadow_1649_1773"/>
<feBlend mode="normal" in="SourceGraphic" in2="effect1_dropShadow_1649_1773" result="shape"/>
</filter>
</defs>
</svg>
