<svg width="55" height="55" viewBox="0 0 55 55" fill="none" xmlns="http://www.w3.org/2000/svg">
<g id="MasterCard">
<g id="Symbol">
<path id="Vector" d="M34.9366 14.1602H20.0645V40.8859H34.9366V14.1602Z" fill="#FF5F00"/>
<path id="Vector_2" d="M21.0086 27.5241C21.0062 24.9503 21.5895 22.4096 22.7142 20.0944C23.8389 17.7793 25.4756 15.7504 27.5003 14.1613C24.993 12.1904 21.9817 10.9648 18.8107 10.6244C15.6396 10.2841 12.4368 10.8428 9.56833 12.2366C6.69982 13.6305 4.28133 15.8033 2.58931 18.5066C0.897292 21.21 0 24.3349 0 27.5241C0 30.7134 0.897292 33.8383 2.58931 36.5417C4.28133 39.245 6.69982 41.4178 9.56833 42.8117C12.4368 44.2055 15.6396 44.7642 18.8107 44.4239C21.9817 44.0835 24.993 42.8579 27.5003 40.887C25.4756 39.2979 23.8389 37.269 22.7142 34.9539C21.5895 32.6387 21.0062 30.098 21.0086 27.5241Z" fill="#EB001B"/>
<path id="Vector_3" d="M55.0005 27.5241C55.0006 30.7133 54.1034 33.8382 52.4115 36.5416C50.7196 39.245 48.3011 41.4178 45.4327 42.8117C42.5642 44.2055 39.3615 44.7642 36.1905 44.4239C33.0195 44.0835 30.0083 42.8579 27.501 40.887C29.524 39.2963 31.1594 37.2671 32.2839 34.9523C33.4084 32.6375 33.9927 30.0976 33.9927 27.5241C33.9927 24.9507 33.4084 22.4108 32.2839 20.096C31.1594 17.7812 29.524 15.752 27.501 14.1613C30.0083 12.1904 33.0195 10.9648 36.1905 10.6244C39.3615 10.2841 42.5642 10.8428 45.4327 12.2366C48.3011 13.6305 50.7196 15.8033 52.4115 18.5067C54.1034 21.2101 55.0006 24.335 55.0005 27.5241Z" fill="#F79E1B"/>
<path id="Vector_4" d="M53.3784 38.0557V37.5086H53.599V37.3971H53.0371V37.5086H53.2578V38.0557H53.3784ZM54.4692 38.0557V37.396H54.297L54.0989 37.8498L53.9007 37.396H53.7284V38.0557H53.85V37.5581L54.0358 37.9871H54.1619L54.3477 37.557V38.0557H54.4692Z" fill="#F79E1B"/>
</g>
</g>
</svg>
