<svg width="55" height="55" viewBox="0 0 55 55" fill="none" xmlns="http://www.w3.org/2000/svg">
<g id="PayPal">
<g id="Group 1">
<g id="pal">
<path id="Vector" d="M37.1137 20.1958H32.8351C32.543 20.1958 32.294 20.4085 32.2484 20.6975L30.5182 31.6672C30.4838 31.8837 30.6514 32.0788 30.8697 32.0788H33.0653C33.2692 32.0788 33.4437 31.93 33.4756 31.7273L33.9667 28.6178C34.0117 28.3282 34.2613 28.1155 34.5534 28.1155H35.907C38.7256 28.1155 40.3514 26.7519 40.7767 24.0496C40.9688 22.8674 40.7842 21.9385 40.2306 21.288C39.6233 20.5736 38.5455 20.1958 37.1137 20.1958ZM37.6072 24.2023C37.3739 25.7373 36.201 25.7373 35.0663 25.7373H34.4214L34.8749 22.8705C34.9018 22.6973 35.0507 22.5697 35.2265 22.5697H35.5223C36.2942 22.5697 37.0236 22.5697 37.4002 23.01C37.6247 23.2727 37.6929 23.6631 37.6072 24.2023Z" fill="#179BD7"/>
<path id="Vector_2" d="M49.9005 24.1531H47.8532C47.6774 24.1531 47.5279 24.2807 47.5016 24.454L47.4109 25.027L47.2671 24.8193C46.8236 24.1756 45.8352 23.9604 44.8482 23.9604C42.5844 23.9604 40.6515 25.675 40.275 28.0801C40.0798 29.2799 40.3569 30.4271 41.0375 31.2271C41.663 31.9627 42.555 32.2693 43.6178 32.2693C45.4418 32.2693 46.4532 31.0964 46.4532 31.0964L46.3619 31.6656C46.3275 31.8833 46.4952 32.0785 46.7147 32.0785H48.5594C48.8515 32.0785 49.1005 31.8658 49.1461 31.5762L50.2539 24.5647C50.2877 24.3489 50.1201 24.1531 49.9005 24.1531ZM47.045 28.1402C46.8486 29.3105 45.9184 30.0962 44.7337 30.0962C44.1401 30.0962 43.6634 29.9054 43.3582 29.5439C43.0554 29.1848 42.9416 28.6738 43.0367 28.1045C43.2224 26.9442 44.1657 26.1329 45.3323 26.1329C45.914 26.1329 46.3869 26.3262 46.6985 26.6909C47.0118 27.0593 47.1357 27.5735 47.045 28.1402Z" fill="#179BD7"/>
<path id="Vector_3" d="M52.316 20.4968L50.5602 31.6674C50.5258 31.8838 50.6934 32.079 50.9117 32.079H52.6769C52.9703 32.079 53.2192 31.8663 53.2643 31.5767L54.9957 20.6075C55.0301 20.3911 54.8625 20.1953 54.6442 20.1953H52.6675C52.493 20.1959 52.3429 20.3235 52.316 20.4968Z" fill="#179BD7"/>
</g>
<g id="pay">
<path id="Vector_4" d="M6.59999 20.1958H2.32205C2.0293 20.1958 1.78035 20.4085 1.73468 20.6975L0.00449102 31.6672C-0.0299127 31.8837 0.137727 32.0788 0.357285 32.0788H2.39961C2.69236 32.0788 2.94131 31.8662 2.98698 31.5765L3.45362 28.6178C3.49865 28.3282 3.74824 28.1155 4.04035 28.1155H5.39461C8.21258 28.1155 9.83894 26.7519 10.2637 24.0496C10.4551 22.8674 10.2718 21.9385 9.71821 21.288C9.1102 20.5736 8.03181 20.1958 6.59999 20.1958ZM7.09352 24.2023C6.85958 25.7373 5.68673 25.7373 4.55266 25.7373H3.90712L4.36 22.8705C4.38689 22.6973 4.53702 22.5697 4.71217 22.5697H5.00804C5.78056 22.5697 6.50929 22.5697 6.88585 23.01C7.11041 23.2727 7.17922 23.6631 7.09352 24.2023Z" fill="#253B80"/>
<path id="Vector_5" d="M19.3876 24.1531H17.339C17.1644 24.1531 17.0137 24.2807 16.9868 24.454L16.8961 25.027L16.7529 24.8193C16.3094 24.1756 15.3204 23.9604 14.3333 23.9604C12.0696 23.9604 10.1361 25.675 9.75953 28.0801C9.56374 29.2799 9.84209 30.4271 10.5227 31.2271C11.1469 31.9627 12.0402 32.2692 13.1029 32.2692C14.927 32.2692 15.9384 31.0964 15.9384 31.0964L15.8471 31.6656C15.8127 31.8833 15.9803 32.0785 16.1986 32.0785H18.0439C18.3373 32.0785 18.585 31.8658 18.6313 31.5762L19.7385 24.5647C19.7735 24.3489 19.6065 24.1531 19.3876 24.1531ZM16.532 28.1402C16.3344 29.3105 15.4055 30.0962 14.2207 30.0962C13.6259 30.0962 13.1505 29.9054 12.8452 29.5439C12.5425 29.1848 12.4274 28.6738 12.5237 28.1045C12.7082 26.9442 13.6528 26.1329 14.8194 26.1329C15.4011 26.1329 15.874 26.3262 16.1855 26.6908C16.4976 27.0593 16.6215 27.5735 16.532 28.1402Z" fill="#253B80"/>
<path id="Vector_6" d="M30.2975 24.1528H28.2389C28.0425 24.1528 27.858 24.2504 27.7466 24.4137L24.9074 28.5959L23.7039 24.5769C23.6282 24.3255 23.3961 24.1528 23.1334 24.1528H21.1105C20.8647 24.1528 20.6939 24.393 20.7721 24.6245L23.0396 31.2788L20.9078 34.2882C20.7402 34.5252 20.9091 34.8511 21.1987 34.8511H23.2548C23.4499 34.8511 23.6326 34.756 23.7433 34.5959L30.5903 24.7127C30.7542 24.4762 30.5859 24.1528 30.2975 24.1528Z" fill="#253B80"/>
</g>
</g>
</g>
</svg>
