<svg width="55" height="55" viewBox="0 0 55 55" fill="none" xmlns="http://www.w3.org/2000/svg">
<g id="Visa">
<path id="Text" d="M27.2324 18.8977L23.558 36.0766H19.1134L22.7883 18.8977H27.2324ZM45.9301 29.9903L48.2693 23.5393L49.6154 29.9903H45.9301ZM50.8905 36.0766H55L51.4098 18.8977H47.619C46.7647 18.8977 46.0445 19.3931 45.7257 20.1569L39.0572 36.0766H43.7247L44.6512 33.511H50.3522L50.8905 36.0766ZM39.2886 30.4683C39.308 25.9345 33.0212 25.6833 33.0633 23.6575C33.0768 23.042 33.6641 22.3863 34.9477 22.2187C35.584 22.1367 37.3401 22.0703 39.3308 22.9876L40.1093 19.3432C39.0402 18.9565 37.6643 18.584 35.9523 18.584C31.5587 18.584 28.4681 20.9177 28.4433 24.2622C28.4151 26.7354 30.6511 28.1144 32.3323 28.9382C34.0656 29.7801 34.6463 30.3199 34.6378 31.0722C34.6258 32.2247 33.2557 32.7351 31.9799 32.7545C29.7443 32.7892 28.4484 32.1502 27.4156 31.6687L26.6088 35.4348C27.649 35.9108 29.5654 36.325 31.5498 36.3462C36.2208 36.3462 39.2747 34.0399 39.2886 30.4683ZM20.8819 18.8977L13.6809 36.0766H8.98372L5.43984 22.3666C5.22501 21.5236 5.03762 21.2137 4.38425 20.8574C3.31553 20.2771 1.55131 19.7342 0 19.3965L0.105097 18.8977H7.66732C8.63056 18.8977 9.49721 19.5387 9.71784 20.6484L11.5898 30.59L16.2129 18.8977H20.8819Z" fill="#1434CB"/>
</g>
</svg>
