<svg width="23" height="23" viewBox="0 0 23 23" fill="none" xmlns="http://www.w3.org/2000/svg">
<g id="&#240;&#159;&#166;&#134; icon &#34;rss&#34;">
<path id="Vector" d="M2.53928 17.8726C3.25549 17.8726 3.85775 18.1249 4.34607 18.6295C4.8344 19.1341 5.07856 19.7282 5.07856 20.4119C5.07856 21.1281 4.8344 21.7385 4.34607 22.2431C3.85775 22.7477 3.25549 23 2.53928 23C1.82307 23 1.22081 22.7477 0.732484 22.2431C0.244161 21.7385 0 21.1281 0 20.4119C0 19.7282 0.244161 19.1341 0.732484 18.6295C1.22081 18.1249 1.82307 17.8726 2.53928 17.8726ZM0 0C3.15782 0 6.12845 0.602265 8.91189 1.80679C11.6953 3.01132 14.1288 4.65534 16.2123 6.73885C18.2958 8.82236 19.9398 11.264 21.1444 14.0637C22.3489 16.8634 22.9512 19.8422 22.9512 23H18.1656C18.1656 20.4933 17.6854 18.1331 16.7251 15.9193C15.7647 13.7056 14.4625 11.7767 12.8185 10.1327C11.1745 8.48868 9.25372 7.18648 7.05626 6.22611C4.85881 5.26575 2.50672 4.78556 0 4.78556V0ZM0 8.93631C1.92074 8.93631 3.73567 9.30255 5.4448 10.035C7.15393 10.7675 8.64331 11.7686 9.91295 13.0382C11.1826 14.3079 12.1837 15.7972 12.9161 17.5064C13.6486 19.2155 14.0149 21.0467 14.0149 23H9.32696C9.32696 21.6978 9.0828 20.477 8.59448 19.3376C8.10616 18.1982 7.43878 17.2052 6.59236 16.3588C5.74593 15.5124 4.75301 14.845 3.61359 14.3567C2.47417 13.8684 1.26964 13.6242 0 13.6242V8.93631Z" fill="#F2F2F2"/>
</g>
</svg>
