<svg width="30" height="30" viewBox="0 0 30 30" fill="none" xmlns="http://www.w3.org/2000/svg">
<g id="8512001971599781001" clip-path="url(#clip0_1649_1764)">
<path id="Vector" d="M25.4061 25.3893C31.1542 19.6412 31.1542 10.3217 25.4061 4.57361C19.658 -1.17448 10.3385 -1.17448 4.59045 4.57361C-1.15764 10.3217 -1.15764 19.6412 4.59045 25.3893C10.3385 31.1374 19.658 31.1374 25.4061 25.3893Z" fill="#F2F5F7"/>
<g id="Group">
<path id="Vector_2" d="M24.3124 12.6225C24.3124 10.4163 22.524 8.62793 20.3178 8.62793H9.95743C7.75131 8.62793 5.96289 10.4163 5.96289 12.6225V17.478C5.96289 19.6842 7.75131 21.4726 9.95743 21.4726H20.3178C22.524 21.4726 24.3124 19.6842 24.3124 17.478V12.6225ZM17.7757 15.2949L13.6438 17.5611C13.4642 17.6583 13.3027 17.5282 13.3027 17.324V12.6723C13.3027 12.4655 13.4693 12.3357 13.649 12.4381L17.8092 14.8235C17.993 14.9282 17.9618 15.1942 17.7757 15.2949Z" fill="#FF0000"/>
</g>
</g>
<defs>
<clipPath id="clip0_1649_1764">
<rect width="30" height="30" fill="white"/>
</clipPath>
</defs>
</svg>
